<?xml version="1.0" encoding="UTF-8"?>
<svg version="1.1" xmlns="http://www.w3.org/2000/svg" width="512" height="512" background-color="transparent">
<path d="M0 0 C165.66 0 331.32 0 502 0 C502 111.54 502 223.08 502 338 C336.34 338 170.68 338 0 338 C0 226.46 0 114.92 0 0 Z " fill="#FEFEFE" transform="translate(5,87)"/>
<path d="M0 0 C163.02 0 326.04 0 494 0 C494 36.63 494 73.26 494 111 C330.98 111 167.96 111 0 111 C0 74.37 0 37.74 0 0 Z " fill="#12892E" transform="translate(9,310)"/>
<path d="M0 0 C163.02 0 326.04 0 494 0 C494 36.63 494 73.26 494 111 C330.98 111 167.96 111 0 111 C0 74.37 0 37.74 0 0 Z " fill="#F1963B" transform="translate(9,91)"/>
<path d="M0 0 C165.66 0 331.32 0 502 0 C502 111.54 502 223.08 502 338 C336.34 338 170.68 338 0 338 C0 226.46 0 114.92 0 0 Z M4 4 C4 40.63 4 77.26 4 115 C167.02 115 330.04 115 498 115 C498 78.37 498 41.74 498 4 C334.98 4 171.96 4 4 4 Z M4 116 C4 150.98 4 185.96 4 222 C167.02 222 330.04 222 498 222 C498 187.02 498 152.04 498 116 C334.98 116 171.96 116 4 116 Z M4 223 C4 259.63 4 296.26 4 334 C167.02 334 330.04 334 498 334 C498 297.37 498 260.74 498 223 C334.98 223 171.96 223 4 223 Z " fill="#D4D4CE" transform="translate(5,87)"/>
<path d="M0 0 C0.8353125 0.61617187 1.670625 1.23234375 2.53125 1.8671875 C6.76467928 5.52454887 9.2600378 10.17584855 12 15 C12.44085938 15.76183594 12.88171875 16.52367187 13.3359375 17.30859375 C18.01188721 26.87605114 17.42267951 39.56150127 14.375 49.5625 C9.4122949 62.14278392 1.16069565 70.94291404 -10.97265625 76.7734375 C-21.28126381 80.95008624 -33.31920311 81.99560911 -44 78.375 C-57.43216417 72.56320128 -66.50117865 63.56617109 -72 50 C-75.69778765 39.79552832 -75.47261508 27.43580483 -71.2578125 17.48828125 C-64.60871595 4.33463373 -55.55022565 -3.41478154 -42 -9 C-27.01691186 -13.10364834 -12.06817599 -9.26539424 0 0 Z " fill="#262E72" transform="translate(285,221)"/>
<path d="M0 0 C1.98 0 3.96 0 6 0 C6.495 0.99 6.495 0.99 7 2 C7.99 2.33 8.98 2.66 10 3 C10 2.34 10 1.68 10 1 C11.98 1.33 13.96 1.66 16 2 C16.495 3.485 16.495 3.485 17 5 C18.3921875 4.8453125 18.3921875 4.8453125 19.8125 4.6875 C20.864375 4.790625 21.91625 4.89375 23 5 C24.04892238 6.63631892 25.04906703 8.30485863 26 10 C28.51948778 10.73740217 28.51948778 10.73740217 31 11 C33 13 33 13 33.125 15.625 C33.08375 16.40875 33.0425 17.1925 33 18 C33.61875 18.0825 34.2375 18.165 34.875 18.25 C37 19 37 19 38.3125 20.8125 C39.10151327 23.32299678 38.87324262 24.55492066 38 27 C38.99 27 39.98 27 41 27 C41.495 29.97 41.495 29.97 42 33 C41.34 33 40.68 33 40 33 C40.99 35.97 40.99 35.97 42 39 C31.77 39 21.54 39 11 39 C11 38.67 11 38.34 11 38 C12.33804688 37.70996094 12.33804688 37.70996094 13.703125 37.4140625 C14.87359375 37.15367187 16.0440625 36.89328125 17.25 36.625 C18.41015625 36.36976563 19.5703125 36.11453125 20.765625 35.8515625 C23.46052401 35.14203595 25.59525832 34.36903611 28 33 C27.19175781 33.20496094 26.38351562 33.40992188 25.55078125 33.62109375 C24.48214844 33.89050781 23.41351563 34.15992188 22.3125 34.4375 C21.25675781 34.70433594 20.20101562 34.97117188 19.11328125 35.24609375 C16.4171683 35.89897932 13.7242424 36.47941193 11 37 C13.54870884 34.23371846 16.20277846 32.8695685 19.59375 31.25 C24.25577691 28.82816784 28.60763238 25.87441704 33 23 C30.41412997 24.26587358 27.83134499 25.53745849 25.25 26.8125 C24.52039063 27.16892578 23.79078125 27.52535156 23.0390625 27.89257812 C19.44089782 29.67530517 16.10367291 31.41088339 13 34 C12.01 33.505 12.01 33.505 11 33 C15.62 28.38 20.24 23.76 25 19 C21.23320145 20.88339927 19.3738202 22.41260315 16.5 25.375 C15.7471875 26.14585937 14.994375 26.91671875 14.21875 27.7109375 C13.4865625 28.46632812 12.754375 29.22171875 12 30 C10.66894781 31.33561058 9.33636707 32.66970732 8 34 C9.56696603 29.68469041 11.74235169 25.81800696 14.0625 21.875 C16.88515439 17.10966103 16.88515439 17.10966103 19 12 C14.69289182 18.85791983 10.45394811 25.66036027 7 33 C5.68327285 29.04981854 6.65483489 27.13831047 7.875 23.1875 C9.22222623 18.79252772 10.34460157 14.55292739 11 10 C10.18479365 12.72838435 9.37275157 15.45764417 8.5625 18.1875 C8.33240234 18.95642578 8.10230469 19.72535156 7.86523438 20.51757812 C6.73764014 24.32525141 5.6831823 28.08151762 5 32 C4.67 32 4.34 32 4 32 C3.505 21.605 3.505 21.605 3 11 C2.67 17.27 2.34 23.54 2 30 C-0.07310585 26.89034122 -0.67246462 24.73197485 -1.5 21.125 C-2.39392171 17.24810042 -3.433199 13.6603713 -5 10 C-4.54884201 12.41820683 -4.08938045 14.83432863 -3.625 17.25 C-3.49867188 17.93191406 -3.37234375 18.61382812 -3.2421875 19.31640625 C-2.69304412 22.14449467 -2.17327238 24.66741006 -0.8359375 27.234375 C0.24483569 29.51712958 -0.16938617 30.67428129 -1 33 C-1.3403125 32.28457031 -1.680625 31.56914062 -2.03125 30.83203125 C-5.89697066 22.88468532 -10.26545474 15.45029964 -15 8 C-13.7550659 10.54425853 -12.50426112 13.08534361 -11.25 15.625 C-10.90195313 16.33785156 -10.55390625 17.05070312 -10.1953125 17.78515625 C-8.06281642 22.08963907 -5.7561525 26.06441288 -3 30 C-3.33 30.66 -3.66 31.32 -4 32 C-9.28 26.72 -14.56 21.44 -20 16 C-15.32948564 23.00577154 -9.44915319 28.63966488 -3 34 C-3.33 34.99 -3.66 35.98 -4 37 C-13 35 -22 33 -31 31 C-18.17617267 35.17593826 -18.17617267 35.17593826 -5 38 C-5 38.33 -5 38.66 -5 39 C-11.93 39 -18.86 39 -26 39 C-26 39.66 -26 40.32 -26 41 C-19.4 41 -12.8 41 -6 41 C-6 41.33 -6 41.66 -6 42 C-7.0621875 42.25394531 -8.124375 42.50789063 -9.21875 42.76953125 C-10.64589635 43.11692872 -12.07297615 43.46459968 -13.5 43.8125 C-14.19609375 43.97814453 -14.8921875 44.14378906 -15.609375 44.31445312 C-20.57197657 45.53212851 -25.24361938 47.13065672 -30 49 C-28.31583984 48.60167969 -28.31583984 48.60167969 -26.59765625 48.1953125 C-19.07457244 46.41885392 -11.55254804 44.64782866 -4 43 C-7.76323081 45.97885717 -11.80858736 48.08979026 -16.05078125 50.3046875 C-19.55919959 52.32144718 -22.73648725 54.60810867 -26 57 C-25.40985107 56.66677734 -24.81970215 56.33355469 -24.21166992 55.99023438 C-21.54060037 54.48688715 -18.86416705 52.99335639 -16.1875 51.5 C-15.25873047 50.97535156 -14.32996094 50.45070313 -13.37304688 49.91015625 C-12.48037109 49.41386719 -11.58769531 48.91757812 -10.66796875 48.40625 C-9.84578857 47.94541016 -9.0236084 47.48457031 -8.17651367 47.00976562 C-6 46 -6 46 -3 46 C-3.7734375 46.68964844 -4.546875 47.37929688 -5.34375 48.08984375 C-11.63410448 53.74812885 -17.54848096 59.50627879 -23 66 C-16.21623641 60.44964797 -10.14477032 54.23557973 -4 48 C-4 51.43177668 -4.7474568 52.70853087 -6.40625 55.66796875 C-7.15068359 57.00698242 -7.15068359 57.00698242 -7.91015625 58.37304688 C-8.43480469 59.30181641 -8.95945313 60.23058594 -9.5 61.1875 C-10.02464844 62.12787109 -10.54929688 63.06824219 -11.08984375 64.03710938 C-12.38761222 66.36129473 -13.69117636 68.68202776 -15 71 C-10.54627822 64.06906019 -6.19799471 57.08892147 -2 50 C-0.64050512 54.07848463 -1.85513897 57.17680945 -2.9375 61.1875 C-3.13279297 61.93708984 -3.32808594 62.68667969 -3.52929688 63.45898438 C-4.01214375 65.30793459 -4.50510633 67.15423776 -5 69 C-3.20380348 64.83314771 -2.0074023 60.57031629 -0.875 56.1875 C-0.69324219 55.49462891 -0.51148438 54.80175781 -0.32421875 54.08789062 C0.12004508 52.39267339 0.5604199 50.69643778 1 49 C1.33 49 1.66 49 2 49 C2.33 58.9 2.66 68.8 3 79 C0.03 78.505 0.03 78.505 -3 78 C-4.33981486 78.3062434 -5.67511887 78.63451555 -7 79 C-8.485 78.505 -8.485 78.505 -10 78 C-10.33 77.01 -10.66 76.02 -11 75 C-12.11375 74.9175 -13.2275 74.835 -14.375 74.75 C-16.169375 74.37875 -16.169375 74.37875 -18 74 C-19.125 72 -19.125 72 -20 70 C-22.55519921 69.18828772 -22.55519921 69.18828772 -25 69 C-25.2475 68.05125 -25.495 67.1025 -25.75 66.125 C-26.62956101 62.88153636 -26.62956101 62.88153636 -29.0625 62.0625 C-30.0215625 61.5365625 -30.0215625 61.5365625 -31 61 C-31.75 57.375 -31.75 57.375 -32 54 C-32.99 53.67 -33.98 53.34 -35 53 C-35 50.03 -35 47.06 -35 44 C-35.66 43.67 -36.32 43.34 -37 43 C-37 41.02 -37 39.04 -37 37 C-36.01 36.505 -36.01 36.505 -35 36 C-35 33.03 -35 30.06 -35 27 C-34.01 26.67 -33.02 26.34 -32 26 C-31.9175 24.88625 -31.835 23.7725 -31.75 22.625 C-31.5025 21.42875 -31.255 20.2325 -31 19 C-29 17.8125 -29 17.8125 -27 17 C-26.19471111 14.94999129 -26.19471111 14.94999129 -26 13 C-25.34 13 -24.68 13 -24 13 C-23.67 12.01 -23.34 11.02 -23 10 C-22.01 10 -21.02 10 -20 10 C-19.814375 9.360625 -19.62875 8.72125 -19.4375 8.0625 C-18 6 -18 6 -14.375 5.25 C-13.26125 5.1675 -12.1475 5.085 -11 5 C-10.67 4.01 -10.34 3.02 -10 2 C-4.375 0.875 -4.375 0.875 -1 2 C-0.67 1.34 -0.34 0.68 0 0 Z " fill="#EEEFF4" transform="translate(253,216)"/>
<path d="M0 0 C0.8353125 0.61617187 1.670625 1.23234375 2.53125 1.8671875 C6.76467928 5.52454887 9.2600378 10.17584855 12 15 C12.44085938 15.76183594 12.88171875 16.52367187 13.3359375 17.30859375 C18.01188721 26.87605114 17.42267951 39.56150127 14.375 49.5625 C9.4122949 62.14278392 1.16069565 70.94291404 -10.97265625 76.7734375 C-21.28126381 80.95008624 -33.31920311 81.99560911 -44 78.375 C-57.43216417 72.56320128 -66.50117865 63.56617109 -72 50 C-75.69778765 39.79552832 -75.47261508 27.43580483 -71.2578125 17.48828125 C-64.60871595 4.33463373 -55.55022565 -3.41478154 -42 -9 C-27.01691186 -13.10364834 -12.06817599 -9.26539424 0 0 Z M-32 -5 C-32.33 -4.34 -32.66 -3.68 -33 -3 C-33.928125 -3.185625 -34.85625 -3.37125 -35.8125 -3.5625 C-39.01343771 -4.24123881 -39.01343771 -4.24123881 -42 -3 C-42.33 -2.01 -42.66 -1.02 -43 0 C-44.11375 0.0825 -45.2275 0.165 -46.375 0.25 C-47.57125 0.4975 -48.7675 0.745 -50 1 C-51.22527948 2.95021083 -51.22527948 2.95021083 -52 5 C-54.125 5.75 -54.125 5.75 -56 6 C-56 6.66 -56 7.32 -56 8 C-56.66 8 -57.32 8 -58 8 C-58.0825 8.61875 -58.165 9.2375 -58.25 9.875 C-58.4975 10.57625 -58.745 11.2775 -59 12 C-59.66 12.268125 -60.32 12.53625 -61 12.8125 C-61.66 13.204375 -62.32 13.59625 -63 14 C-63.81870185 17.56206661 -63.81870185 17.56206661 -64 21 C-64.99 21.33 -65.98 21.66 -67 22 C-67 24.97 -67 27.94 -67 31 C-67.99 31.495 -67.99 31.495 -69 32 C-69 33.98 -69 35.96 -69 38 C-68.34 38.33 -67.68 38.66 -67 39 C-67 41.97 -67 44.94 -67 48 C-66.01 48.33 -65.02 48.66 -64 49 C-63.9175 50.11375 -63.835 51.2275 -63.75 52.375 C-63.37875 54.169375 -63.37875 54.169375 -63 56 C-61.06669397 57.09166275 -61.06669397 57.09166275 -59 58 C-57.75 61.125 -57.75 61.125 -57 64 C-56.21625 64.0825 -55.4325 64.165 -54.625 64.25 C-53.325625 64.62125 -53.325625 64.62125 -52 65 C-51.71125 65.66 -51.4225 66.32 -51.125 67 C-50.75375 67.66 -50.3825 68.32 -50 69 C-46.43793339 69.81870185 -46.43793339 69.81870185 -43 70 C-42.67 70.99 -42.34 71.98 -42 73 C-37.46859347 73.93380961 -37.46859347 73.93380961 -33 73 C-32.67 73.66 -32.34 74.32 -32 75 C-30.02 75 -28.04 75 -26 75 C-25.67 74.34 -25.34 73.68 -25 73 C-24.01 72.67 -23.02 72.34 -22 72 C-22 72.66 -22 73.32 -22 74 C-19.03 73.505 -19.03 73.505 -16 73 C-15.505 71.515 -15.505 71.515 -15 70 C-14.071875 70.103125 -13.14375 70.20625 -12.1875 70.3125 C-11.135625 70.209375 -10.08375 70.10625 -9 70 C-7.96210419 68.35666496 -6.96432076 66.68756133 -6 65 C-2.8125 63.6875 -2.8125 63.6875 0 63 C0.0825 62.21625 0.165 61.4325 0.25 60.625 C0.4975 59.75875 0.745 58.8925 1 58 C2.9375 56.9375 2.9375 56.9375 5 56 C6.39238047 54.13252737 6.39238047 54.13252737 7 52 C6.67 51.01 6.34 50.02 6 49 C6.99 48.67 7.98 48.34 9 48 C9.93380961 43.46859347 9.93380961 43.46859347 9 39 C9.66 38.67 10.32 38.34 11 38 C11 36.02 11 34.04 11 32 C10.34 31.67 9.68 31.34 9 31 C8.67 30.01 8.34 29.02 8 28 C8.66 28 9.32 28 10 28 C9.505 25.03 9.505 25.03 9 22 C8.01 22 7.02 22 6 22 C6.226875 21.2575 6.45375 20.515 6.6875 19.75 C7.26881593 16.97047583 7.26881593 16.97047583 5.75 14.6875 C4.04525807 12.65293221 4.04525807 12.65293221 1 13 C1.0928125 11.8553125 1.0928125 11.8553125 1.1875 10.6875 C1.22937566 8.00356031 1.22937566 8.00356031 -0.25 6.1875 C-2.19917293 4.62566572 -2.19917293 4.62566572 -6 5 C-6.680625 3.7625 -6.680625 3.7625 -7.375 2.5 C-7.91125 1.675 -8.4475 0.85 -9 0 C-12.12635209 -0.41746608 -12.12635209 -0.41746608 -15 0 C-15.495 -1.485 -15.495 -1.485 -16 -3 C-17.98 -3.33 -19.96 -3.66 -22 -4 C-22 -3.34 -22 -2.68 -22 -2 C-22.99 -2.33 -23.98 -2.66 -25 -3 C-25.495 -3.99 -25.495 -3.99 -26 -5 C-27.98 -5 -29.96 -5 -32 -5 Z " fill="#293174" transform="translate(285,221)"/>
<path d="M0 0 C9.9 0 19.8 0 30 0 C29.67 1.65 29.34 3.3 29 5 C29.31478446 6.33783393 29.64587656 7.67203709 30 9 C29.67 9.99 29.34 10.98 29 12 C28.01 12.33 27.02 12.66 26 13 C26.226875 13.5775 26.45375 14.155 26.6875 14.75 C27 17 27 17 25.75 19.1875 C24 21 24 21 21 22 C20.67 23.65 20.34 25.3 20 27 C19.071875 27.226875 18.14375 27.45375 17.1875 27.6875 C13.81910678 28.69302969 13.81910678 28.69302969 12.5 31.625 C12.005 32.40875 11.51 33.1925 11 34 C7.8125 34.3125 7.8125 34.3125 5 34 C4.67 34.99 4.34 35.98 4 37 C1.03 37.495 1.03 37.495 -2 38 C-2 37.34 -2 36.68 -2 36 C-3.98 36.66 -5.96 37.32 -8 38 C-8 27.77 -8 17.54 -8 7 C-7.67 7 -7.34 7 -7 7 C-6.81824219 7.73863281 -6.63648438 8.47726562 -6.44921875 9.23828125 C-4.72762483 16.18645775 -2.91445849 23.10251836 -1 30 C-2.04966142 23.50444817 -3.37739005 17.32477597 -5.51171875 11.09375 C-6 9 -6 9 -5 6 C-4.22076172 7.50240234 -4.22076172 7.50240234 -3.42578125 9.03515625 C-2.72162552 10.37774652 -2.01718301 11.72018641 -1.3125 13.0625 C-0.97283203 13.71927734 -0.63316406 14.37605469 -0.28320312 15.05273438 C2.14639794 19.66216443 4.89314089 23.81580621 8 28 C6.56825986 25.24696439 5.12860078 22.49814568 3.6875 19.75 C3.28337891 18.97269531 2.87925781 18.19539063 2.46289062 17.39453125 C0.53135464 13.71990181 -1.33368202 10.20993621 -4 7 C-3.67 6.34 -3.34 5.68 -3 5 C-2.25234375 5.84304688 -1.5046875 6.68609375 -0.734375 7.5546875 C0.26009916 8.66174364 1.25490849 9.76849875 2.25 10.875 C2.74113281 11.43058594 3.23226563 11.98617188 3.73828125 12.55859375 C6.42483716 15.53171563 8.35286203 17.17643102 12 19 C7.71 14.71 3.42 10.42 -1 6 C2.43177668 6 3.70853087 6.7474568 6.66796875 8.40625 C8.00698242 9.15068359 8.00698242 9.15068359 9.37304688 9.91015625 C10.30181641 10.43480469 11.23058594 10.95945312 12.1875 11.5 C13.12787109 12.02464844 14.06824219 12.54929687 15.03710938 13.08984375 C17.36129473 14.38761222 19.68202776 15.69117636 22 17 C16.07487219 13.18563201 10.14857938 9.44320445 4 6 C2.33020674 5.00522955 0.66220581 4.00739746 -1 3 C1.56273554 1.71863223 2.32467695 2.19518115 5.02734375 2.99609375 C5.81947266 3.22490234 6.61160156 3.45371094 7.42773438 3.68945312 C8.25595703 3.93630859 9.08417969 4.18316406 9.9375 4.4375 C11.5705852 4.9188707 13.20466627 5.396879 14.83984375 5.87109375 C15.92833618 6.19484985 15.92833618 6.19484985 17.03881836 6.52514648 C19.14964983 7.11766322 19.14964983 7.11766322 22 7 C19.27161565 6.18479365 16.54235583 5.37275157 13.8125 4.5625 C13.04357422 4.33240234 12.27464844 4.10230469 11.48242188 3.86523438 C7.67474859 2.73764014 3.91848238 1.6831823 0 1 C0 0.67 0 0.34 0 0 Z " fill="#F3F3F7" transform="translate(265,257)"/>
<path d="M0 0 C0.66 0.33 1.32 0.66 2 1 C1.2265625 1.68964844 0.453125 2.37929688 -0.34375 3.08984375 C-6.63410448 8.74812885 -12.54848096 14.50627879 -18 21 C-11.21623641 15.44964797 -5.14477032 9.23557973 1 3 C1 6.43177668 0.2525432 7.70853087 -1.40625 10.66796875 C-2.15068359 12.00698242 -2.15068359 12.00698242 -2.91015625 13.37304688 C-3.43480469 14.30181641 -3.95945313 15.23058594 -4.5 16.1875 C-5.02464844 17.12787109 -5.54929688 18.06824219 -6.08984375 19.03710938 C-7.38761222 21.36129473 -8.69117636 23.68202776 -10 26 C-5.54627822 19.06906019 -1.19799471 12.08892147 3 5 C4.35949488 9.07848463 3.14486103 12.17680945 2.0625 16.1875 C1.86720703 16.93708984 1.67191406 17.68667969 1.47070312 18.45898438 C0.98785625 20.30793459 0.49489367 22.15423776 0 24 C1.79619652 19.83314771 2.9925977 15.57031629 4.125 11.1875 C4.30675781 10.49462891 4.48851562 9.80175781 4.67578125 9.08789062 C5.12004508 7.39267339 5.5604199 5.69643778 6 4 C6.33 4 6.66 4 7 4 C7.33 13.9 7.66 23.8 8 34 C5.03 33.505 5.03 33.505 2 33 C0.66018514 33.3062434 -0.67511887 33.63451555 -2 34 C-3.485 33.505 -3.485 33.505 -5 33 C-5.33 32.01 -5.66 31.02 -6 30 C-7.11375 29.9175 -8.2275 29.835 -9.375 29.75 C-10.57125 29.5025 -11.7675 29.255 -13 29 C-14.125 27 -14.125 27 -15 25 C-17.55519921 24.18828772 -17.55519921 24.18828772 -20 24 C-20.2475 23.05125 -20.495 22.1025 -20.75 21.125 C-21.6857077 17.91306809 -21.6857077 17.91306809 -24.125 16.625 C-25.053125 16.315625 -25.053125 16.315625 -26 16 C-25.67 15.01 -25.34 14.02 -25 13 C-23.20703125 12.11328125 -23.20703125 12.11328125 -20.8125 11.3125 C-16.07093623 9.55331112 -11.80224956 7.33615956 -7.4375 4.8125 C-6.81786377 4.45518799 -6.19822754 4.09787598 -5.55981445 3.72973633 C-2.60845518 2.09924617 -2.60845518 2.09924617 0 0 Z " fill="#F1F2F6" transform="translate(248,261)"/>
<path d="M0 0 C1.33804688 0.17982422 1.33804688 0.17982422 2.703125 0.36328125 C3.37859375 0.47027344 4.0540625 0.57726562 4.75 0.6875 C5.76094544 4.08017194 6.75680051 7.47709455 7.75 10.875 C8.03617187 11.83470703 8.32234375 12.79441406 8.6171875 13.78320312 C8.88789063 14.71455078 9.15859375 15.64589844 9.4375 16.60546875 C9.81455078 17.88587036 9.81455078 17.88587036 10.19921875 19.19213867 C10.76786865 21.76845545 10.84883894 24.05797227 10.75 26.6875 C8.56470133 24.50220133 8.24150093 23.47152977 7.4609375 20.5546875 C7.26290527 19.82878418 7.06487305 19.10288086 6.86083984 18.35498047 C6.6180127 17.43346191 6.37518555 16.51194336 6.125 15.5625 C5.34125 12.63375 4.5575 9.705 3.75 6.6875 C3.42 15.2675 3.09 23.8475 2.75 32.6875 C3.41 33.0175 4.07 33.3475 4.75 33.6875 C2.77 33.6875 0.79 33.6875 -1.25 33.6875 C0.235 33.1925 0.235 33.1925 1.75 32.6875 C1.42 31.6975 1.09 30.7075 0.75 29.6875 C0.60222064 27.98882812 0.50252934 26.28572511 0.43359375 24.58203125 C0.39169922 23.59912109 0.34980469 22.61621094 0.30664062 21.60351562 C0.26732422 20.57935547 0.22800781 19.55519531 0.1875 18.5 C0.14431641 17.46423828 0.10113281 16.42847656 0.05664062 15.36132812 C-0.04944263 12.80354298 -0.15022586 10.24553902 -0.25 7.6875 C-2.23 13.9575 -4.21 20.2275 -6.25 26.6875 C-7.17751981 22.97742074 -7.33209668 22.01588671 -6.47265625 18.578125 C-6.28896484 17.82402344 -6.10527344 17.06992187 -5.91601562 16.29296875 C-5.71685547 15.51566406 -5.51769531 14.73835938 -5.3125 13.9375 C-5.11720703 13.14472656 -4.92191406 12.35195313 -4.72070312 11.53515625 C-4.23875921 9.58387115 -3.74547912 7.63539217 -3.25 5.6875 C-3.60304199 6.28812256 -3.95608398 6.88874512 -4.31982422 7.50756836 C-5.91619811 10.21657442 -7.52047862 12.92081237 -9.125 15.625 C-9.68058594 16.57052734 -10.23617187 17.51605469 -10.80859375 18.49023438 C-11.34355469 19.38935547 -11.87851563 20.28847656 -12.4296875 21.21484375 C-13.16807861 22.46382446 -13.16807861 22.46382446 -13.92138672 23.73803711 C-15.25 25.6875 -15.25 25.6875 -17.25 26.6875 C-15.73968084 21.42627829 -13.34625809 17.01517414 -10.625 12.3125 C-9.99464844 11.20841797 -9.99464844 11.20841797 -9.3515625 10.08203125 C-8.32247236 8.2811235 -7.28689244 6.48392682 -6.25 4.6875 C-7.4876639 4.57411245 -7.4876639 4.57411245 -8.83227539 6.15625 C-9.49735107 6.8265625 -10.16242676 7.496875 -10.84765625 8.1875 C-11.56630859 8.909375 -12.28496094 9.63125 -13.02539062 10.375 C-14.15750977 11.5196875 -14.15750977 11.5196875 -15.3125 12.6875 C-16.07111328 13.450625 -16.82972656 14.21375 -17.61132812 15 C-19.49312505 16.89363213 -21.37255805 18.78955162 -23.25 20.6875 C-23.91 20.3575 -24.57 20.0275 -25.25 19.6875 C-22.67184077 16.91181328 -20.08658991 14.1428302 -17.5 11.375 C-16.77039063 10.58931641 -16.04078125 9.80363281 -15.2890625 8.99414062 C-14.58007812 8.23681641 -13.87109375 7.47949219 -13.140625 6.69921875 C-12.49125977 6.00272217 -11.84189453 5.30622559 -11.17285156 4.58862305 C-7.34216457 0.8012234 -5.52203396 -0.79924176 0 0 Z " fill="#52588F" transform="translate(254.25,262.3125)"/>
<path d="M0 0 C0.33 0 0.66 0 1 0 C1 1.98 1 3.96 1 6 C0.505 5.01 0.505 5.01 0 4 C-12.375 4.495 -12.375 4.495 -25 5 C-13.615 8.465 -13.615 8.465 -2 12 C-5.92812337 12.98203084 -6.99860837 12.99085441 -10.6953125 12.00390625 C-11.57574219 11.77509766 -12.45617187 11.54628906 -13.36328125 11.31054688 C-14.27464844 11.06369141 -15.18601562 10.81683594 -16.125 10.5625 C-17.93960965 10.08276098 -19.75469236 9.60480668 -21.5703125 9.12890625 C-22.37227051 8.91306885 -23.17422852 8.69723145 -24.00048828 8.47485352 C-25.9817927 7.92298054 -25.9817927 7.92298054 -28 8 C-26.453125 8.7115625 -26.453125 8.7115625 -24.875 9.4375 C-18.2570948 12.72256124 -12.16457163 16.94800629 -6 21 C-6.66 21.33 -7.32 21.66 -8 22 C-10.06298828 21.10375977 -10.06298828 21.10375977 -12.5703125 19.69140625 C-13.46621094 19.19189453 -14.36210937 18.69238281 -15.28515625 18.17773438 C-16.69087891 17.37819336 -16.69087891 17.37819336 -18.125 16.5625 C-19.06988281 16.03333984 -20.01476562 15.50417969 -20.98828125 14.95898438 C-23.32962905 13.64641061 -25.6665287 12.32651055 -28 11 C-28.1154844 12.45861064 -28.1154844 12.45861064 -25.59375 14.50390625 C-24.565008 15.5259681 -23.53362793 16.54537964 -22.5 17.5625 C-21.97535156 18.08263672 -21.45070313 18.60277344 -20.91015625 19.13867188 C-19.60898237 20.42801691 -18.30476949 21.7142937 -17 23 C-17.33 23.66 -17.66 24.32 -18 25 C-30.05775234 14.4640999 -30.05775234 14.4640999 -33 10 C-32.875 7.3125 -32.875 7.3125 -32 5 C-31.67 4.01 -31.34 3.02 -31 2 C-20.77 2 -10.54 2 0 2 C0 1.34 0 0.68 0 0 Z " fill="#5F6497" transform="translate(295,253)"/>
<path d="M0 0 C6.01271968 0.4474217 10.00497514 2.34515984 15.125 5.4375 C21.35240149 9.13987102 21.35240149 9.13987102 28 12 C27.67 12.99 27.34 13.98 27 15 C20.14037922 13.48194535 13.28779336 11.93456381 6.4375 10.375 C5.42880859 10.14554688 4.42011719 9.91609375 3.38085938 9.6796875 C0.92052746 9.11999114 -1.53975801 8.56009152 -4 8 C-4 7.01 -4 6.02 -4 5 C-3.01 4.67 -2.02 4.34 -1 4 C-0.26676204 1.98491642 -0.26676204 1.98491642 0 0 Z " fill="#ECECF2" transform="translate(222,238)"/>
<path d="M0 0 C5.51799666 0.59870881 10.75579529 1.5460587 16.125 2.9375 C16.80175781 3.10701172 17.47851562 3.27652344 18.17578125 3.45117188 C22.18066227 4.4698215 26.09684863 5.64423247 30 7 C30 8.98 30 10.96 30 13 C4.99490129 20.52162556 4.99490129 20.52162556 0 19 C2.89461219 18.0170943 5.79058079 17.03856299 8.6875 16.0625 C9.50412109 15.78470703 10.32074219 15.50691406 11.16210938 15.22070312 C12.35610352 14.81948242 12.35610352 14.81948242 13.57421875 14.41015625 C14.66609497 14.04096069 14.66609497 14.04096069 15.7800293 13.66430664 C18.14613392 12.95627071 20.57819085 12.48436183 23 12 C18.05 11.67 13.1 11.34 8 11 C8 10.34 8 9.68 8 9 C16.415 8.505 16.415 8.505 25 8 C23.288125 7.5875 21.57625 7.175 19.8125 6.75 C13.12677755 5.0845459 6.56494509 3.08595836 0 1 C0 0.67 0 0.34 0 0 Z " fill="#424984" transform="translate(219,246)"/>
<path d="M0 0 C0.83023682 0.25692627 0.83023682 0.25692627 1.67724609 0.51904297 C4.24162996 1.30943891 6.80827548 2.09224004 9.375 2.875 C10.24511719 3.14441406 11.11523438 3.41382813 12.01171875 3.69140625 C17.95565735 5.49660242 23.88720995 6.89591329 30 8 C30 8.33 30 8.66 30 9 C23.07 9 16.14 9 9 9 C9 9.66 9 10.32 9 11 C5.7 11 2.4 11 -1 11 C-1.33 11.66 -1.66 12.32 -2 13 C-2 11.02 -2 9.04 -2 7 C-1.34 6.67 -0.68 6.34 0 6 C0 4.02 0 2.04 0 0 Z " fill="#E6E7EE" transform="translate(218,246)"/>
<path d="M0 0 C3.44311058 1.31293711 6.64211396 2.8143342 9.86328125 4.6015625 C11.19262695 5.33632813 11.19262695 5.33632813 12.54882812 6.0859375 C13.46083984 6.59382813 14.37285156 7.10171875 15.3125 7.625 C16.24384766 8.140625 17.17519531 8.65625 18.13476562 9.1875 C20.42463469 10.45573517 22.71297715 11.72664162 25 13 C25 13.99 25 14.98 25 16 C24.01 16.33 23.02 16.66 22 17 C21.87625 17.804375 21.7525 18.60875 21.625 19.4375 C21.41875 20.283125 21.2125 21.12875 21 22 C20.34 22.33 19.68 22.66 19 23 C14.30196431 17.54012068 14.30196431 17.54012068 12.6875 14.65234375 C10.62618517 11.41245308 8.06772178 8.88790266 5.3125 6.25 C3.51990184 4.51843608 1.75227467 2.77309967 0 1 C0 0.67 0 0.34 0 0 Z " fill="#EBECF2" transform="translate(264,262)"/>
<path d="M0 0 C0 3 0 3 -1.19335938 4.53393555 C-1.73798828 5.062854 -2.28261719 5.59177246 -2.84375 6.13671875 C-3.72353516 7.00200195 -3.72353516 7.00200195 -4.62109375 7.88476562 C-5.24113281 8.47966797 -5.86117188 9.07457031 -6.5 9.6875 C-7.12003906 10.29400391 -7.74007813 10.90050781 -8.37890625 11.52539062 C-9.91264707 13.02373743 -11.45548198 14.51276493 -13 16 C-10.6032896 14.73079864 -8.20761907 13.45969813 -5.8125 12.1875 C-5.13896484 11.83107422 -4.46542969 11.47464844 -3.77148438 11.10742188 C-0.82370746 9.54006732 2.04494731 7.97136372 4.86328125 6.17578125 C5.56839844 5.78777344 6.27351563 5.39976562 7 5 C7.66 5.33 8.32 5.66 9 6 C6.2522289 7.79510291 3.50140293 9.58546964 0.75 11.375 C-0.02730469 11.88289062 -0.80460937 12.39078125 -1.60546875 12.9140625 C-2.35957031 13.40390625 -3.11367188 13.89375 -3.890625 14.3984375 C-4.58188477 14.84880371 -5.27314453 15.29916992 -5.98535156 15.76318359 C-7.94409302 16.96567805 -9.92924424 18.00522517 -12 19 C-11.47792969 18.79503906 -10.95585937 18.59007812 -10.41796875 18.37890625 C-4.29251368 16.13683951 1.50382011 15.35212938 8 15 C0.68863795 19.87424136 -6.40303826 20.58448018 -15 21 C-15.75 18.80859375 -15.75 18.80859375 -16 16 C-14.375 13.53515625 -14.375 13.53515625 -12 11.0625 C-11.17628906 10.20011719 -10.35257812 9.33773437 -9.50390625 8.44921875 C-6.44862886 5.46067129 -3.32312273 2.68678008 0 0 Z " fill="#404783" transform="translate(278,233)"/>
<path d="M0 0 C0.99 0 1.98 0 3 0 C3.33 0.66 3.66 1.32 4 2 C5.65 2 7.3 2 9 2 C7.4085041 6.47501268 5.10725638 10.29517066 2.625 14.3125 C-0.5034037 19.44153254 -3.44438383 24.55542643 -6 30 C-7.28577884 26.14266347 -6.44665991 24.48379464 -5.25 20.625 C-3.20431919 13.80606397 -1.5251626 6.9556658 0 0 Z " fill="#F8F8FA" transform="translate(266,219)"/>
<path d="M0 0 C-0.020625 0.763125 -0.04125 1.52625 -0.0625 2.3125 C-0.12942841 5.10185786 -0.12942841 5.10185786 1 8 C-9.23 8 -19.46 8 -30 8 C-30 7.67 -30 7.34 -30 7 C-29.21238281 6.82984375 -28.42476563 6.6596875 -27.61328125 6.484375 C-20.5369151 4.90998821 -13.66216158 3.04177644 -6.77734375 0.76953125 C-4 0 -4 0 0 0 Z " fill="#F5F6F9" transform="translate(294,247)"/>
<path d="M0 0 C0.66 0.99 1.32 1.98 2 3 C3.63495707 4.05104383 5.29883624 5.05988318 7 6 C4.8281708 8.1718292 2.77983962 8.9843646 -0.02539062 10.13916016 C-4.07466422 11.9044592 -7.89295373 14.14995262 -11.74609375 16.30273438 C-16.68023829 19 -16.68023829 19 -20 19 C-13.8568185 12.75518498 -7.67892765 6.67887431 -1 1 C-0.67 0.67 -0.34 0.34 0 0 Z " fill="#F0F0F5" transform="translate(284,230)"/>
<path d="M0 0 C0.99 0 1.98 0 3 0 C2.67 9.57 2.34 19.14 2 29 C-0.03940376 25.94089436 -0.62776779 23.91586288 -1.4375 20.375 C-2.52834349 15.77787384 -3.81292637 11.36807629 -5.44921875 6.9375 C-6 5 -6 5 -6 1 C-4.7934375 1.0309375 -4.7934375 1.0309375 -3.5625 1.0625 C-1.06645115 1.29633621 -1.06645115 1.29633621 0 0 Z " fill="#F8F9FA" transform="translate(253,217)"/>
<path d="M0 0 C9.9 0 19.8 0 30 0 C30 0.33 30 0.66 30 1 C28.49373047 1.36351562 28.49373047 1.36351562 26.95703125 1.734375 C18.20007381 3.87200164 9.58392779 6.23668078 1 9 C1.020625 8.071875 1.04125 7.14375 1.0625 6.1875 C1.15769604 2.97713989 1.15769604 2.97713989 0 0 Z " fill="#F9F9FB" transform="translate(217,257)"/>
<path d="M0 0 C3.66733446 3.43434928 6.01301206 7.55781652 8.625 11.8125 C9.12773437 12.60720703 9.63046875 13.40191406 10.1484375 14.22070312 C12.766942 18.47577294 14.65468401 21.89425643 15 27 C9.88218453 26.65127224 7.30584118 23.84184365 3.9375 20.3125 C3.42123047 19.79494141 2.90496094 19.27738281 2.37304688 18.74414062 C-0.89812845 15.39795746 -3.51991167 11.96695183 -6 8 C-2.95667235 9.3584202 -0.87690849 10.88463024 1.453125 13.2578125 C2.071875 13.88300781 2.690625 14.50820312 3.328125 15.15234375 C3.96234375 15.80332031 4.5965625 16.45429688 5.25 17.125 C5.8996875 17.78371094 6.549375 18.44242188 7.21875 19.12109375 C8.81711727 20.74296643 10.41061897 22.3693281 12 24 C10.75133587 21.64511643 9.50110525 19.29108629 8.25 16.9375 C7.90195313 16.28072266 7.55390625 15.62394531 7.1953125 14.94726562 C5.4335959 11.63589091 3.63574406 8.36240733 1.734375 5.12890625 C0 2 0 2 0 0 Z " fill="#454C86" transform="translate(237,223)"/>
<path d="M0 0 C1.97966058 2.96949087 2.94746142 5.44194612 4.0625 8.8125 C4.40410156 9.82957031 4.74570313 10.84664062 5.09765625 11.89453125 C5.97788876 14.92390287 6.5477328 17.88075512 7 21 C7.04898438 19.86820313 7.09796875 18.73640625 7.1484375 17.5703125 C7.22346514 16.08851661 7.29901297 14.606747 7.375 13.125 C7.42140625 12.00544922 7.42140625 12.00544922 7.46875 10.86328125 C7.7734375 5.2265625 7.7734375 5.2265625 10 3 C10 10.59 10 18.18 10 26 C8.68 26.33 7.36 26.66 6 27 C0 8.41747573 0 8.41747573 0 0 Z " fill="#414884" transform="translate(247,222)"/>
<path d="M0 0 C1.33839098 4.35338794 0.33875565 7.87792028 -0.75 12.1875 C-1.0269873 13.32336548 -1.0269873 13.32336548 -1.30957031 14.48217773 C-2.61947845 19.75404896 -4.14263949 24.8922586 -6 30 C-6.66 29.67 -7.32 29.34 -8 29 C-5.63994226 19.2208246 -3.08409626 9.58038412 0 0 Z " fill="#484E88" transform="translate(265,219)"/>
<path d="M0 0 C1 3 1 3 0.04370117 5.16064453 C-0.69916138 6.38436768 -0.69916138 6.38436768 -1.45703125 7.6328125 C-1.99263672 8.52097656 -2.52824219 9.40914063 -3.08007812 10.32421875 C-3.65177734 11.24847656 -4.22347656 12.17273438 -4.8125 13.125 C-5.37259766 14.05699219 -5.93269531 14.98898437 -6.50976562 15.94921875 C-10.71943681 22.85971841 -10.71943681 22.85971841 -13 24 C-11.49622155 18.80215711 -9.17231165 14.41160434 -6.5 9.75 C-5.89478516 8.67105469 -5.89478516 8.67105469 -5.27734375 7.5703125 C-2.26968344 2.26968344 -2.26968344 2.26968344 0 0 Z " fill="#545B90" transform="translate(250,265)"/>
<path d="M0 0 C5.49115314 1.30238889 9.57896832 3.30831319 14.25 6.4375 C15.16652344 7.03014648 15.16652344 7.03014648 16.1015625 7.63476562 C18.999339 9.53603602 21.69138815 11.3986294 24 14 C18.82275865 12.49404143 14.41017417 10.20411887 9.75 7.5625 C8.67105469 6.96985352 8.67105469 6.96985352 7.5703125 6.36523438 C6.88195312 5.97787109 6.19359375 5.59050781 5.484375 5.19140625 C4.86272461 4.84279541 4.24107422 4.49418457 3.60058594 4.13500977 C2 3 2 3 0 0 Z " fill="#474E88" transform="translate(265,261)"/>
<path d="M0 0 C5.26122171 1.51031916 9.67232586 3.90374191 14.375 6.625 C15.47908203 7.25535156 15.47908203 7.25535156 16.60546875 7.8984375 C18.4063765 8.92752764 20.20357318 9.96310756 22 11 C22 11.66 22 12.32 22 13 C16.58485842 11.50528426 12.30856766 8.93142616 7.625 5.9375 C6.88894531 5.47794922 6.15289062 5.01839844 5.39453125 4.54492188 C3.57543224 3.39575079 1.78474077 2.2018385 0 1 C0 0.67 0 0.34 0 0 Z " fill="#424984" transform="translate(225,238)"/>
<path d="M0 0 C4.32504836 1.65863505 7.09418825 4.871041 10.25 8.125 C11.08144531 8.96998047 11.08144531 8.96998047 11.9296875 9.83203125 C13.29104485 11.21686028 14.64614859 12.60783204 16 14 C15.67 14.66 15.34 15.32 15 16 C4.11971831 6.49295775 4.11971831 6.49295775 0 1 C0 0.67 0 0.34 0 0 Z " fill="#3C4380" transform="translate(262,262)"/>
<path d="M0 0 C2.70331017 2.70331017 3.19915686 5.71542796 4.125 9.3125 C4.30675781 9.97701172 4.48851562 10.64152344 4.67578125 11.32617188 C5.63204455 14.9606914 6.21811505 18.24115057 6 22 C1.86592331 17.86592331 0.35330292 10.30820008 -0.2578125 4.5859375 C-0.25 2.6875 -0.25 2.6875 0 0 Z " fill="#424884" transform="translate(259,267)"/>
<path d="M0 0 C0.33 0 0.66 0 1 0 C0.5003731 7.49440349 -1.43764478 13.95650263 -4 21 C-5.3583275 16.62701088 -4.2812702 13.11979793 -3.125 8.8125 C-2.84462891 7.70745117 -2.84462891 7.70745117 -2.55859375 6.58007812 C-1.14982531 1.14982531 -1.14982531 1.14982531 0 0 Z " fill="#404783" transform="translate(252,268)"/>
<path d="M0 0 C0 3 0 3 -2.1875 5.48046875 C-3.115625 6.37378906 -4.04375 7.26710937 -5 8.1875 C-5.928125 9.08855469 -6.85625 9.98960937 -7.8125 10.91796875 C-8.534375 11.60503906 -9.25625 12.29210937 -10 13 C-10.66 12.34 -11.32 11.68 -12 11 C-10.75323147 9.72599623 -9.5024352 8.45593346 -8.25 7.1875 C-7.55390625 6.47980469 -6.8578125 5.77210938 -6.140625 5.04296875 C-4.18571355 3.17724121 -2.19661447 1.56830358 0 0 Z " fill="#3D4481" transform="translate(278,233)"/>
<path d="M0 0 C2.29158942 2.89818662 4.07862366 5.83140544 5.75 9.125 C6.19859375 9.99382812 6.6471875 10.86265625 7.109375 11.7578125 C7.40328125 12.49773437 7.6971875 13.23765625 8 14 C7.67 14.66 7.34 15.32 7 16 C5.63058132 14.0942007 4.27988837 12.17493427 2.9375 10.25 C2.18339844 9.18265625 1.42929687 8.1153125 0.65234375 7.015625 C-1 4 -1 4 -0.74609375 1.609375 C-0.49988281 1.07828125 -0.25367188 0.5471875 0 0 Z " fill="#51578E" transform="translate(266,271)"/>
<path d="M0 0 C0 0.33 0 0.66 0 1 C-2.24743045 1.53181175 -4.49807102 2.05007126 -6.75 2.5625 C-8.62945312 2.99755859 -8.62945312 2.99755859 -10.546875 3.44140625 C-13.59473748 3.93444283 -15.17641828 4.07666879 -18 3 C-16.13133238 2.29546997 -14.25468584 1.61208312 -12.375 0.9375 C-11.33085937 0.55464844 -10.28671875 0.17179687 -9.2109375 -0.22265625 C-5.72829236 -1.06577837 -3.45547652 -0.82495611 0 0 Z " fill="#696F9E" transform="translate(237,262)"/>
<path d="M0 0 C0.66 0 1.32 0 2 0 C2.33 1.32 2.66 2.64 3 4 C3.66 3.67 4.32 3.34 5 3 C5.33 4.98 5.66 6.96 6 9 C4.68 9.33 3.36 9.66 2 10 C1.34 6.7 0.68 3.4 0 0 Z " fill="#464D87" transform="translate(251,239)"/>
<path d="M0 0 C0.33 0.66 0.66 1.32 1 2 C-0.21484375 4.8203125 -0.21484375 4.8203125 -1.9375 8.125 C-2.50339844 9.22070312 -3.06929688 10.31640625 -3.65234375 11.4453125 C-4.09707031 12.28835937 -4.54179687 13.13140625 -5 14 C-5.99 14 -6.98 14 -8 14 C-6.6744419 10.37723685 -5.05653045 7.36494652 -2.875 4.1875 C-2.33617187 3.39730469 -1.79734375 2.60710937 -1.2421875 1.79296875 C-0.83226562 1.20128906 -0.42234375 0.60960937 0 0 Z " fill="#53598F" transform="translate(273,225)"/>
<path d="M0 0 C0.99 0.33 1.98 0.66 3 1 C-0.3 4.3 -3.6 7.6 -7 11 C-7.66 10.67 -8.32 10.34 -9 10 C-6.03 6.7 -3.06 3.4 0 0 Z " fill="#686E9D" transform="translate(238,272)"/>
<path d="M0 0 C0.99 0.66 1.98 1.32 3 2 C2.67 3.32 2.34 4.64 2 6 C1.67 5.34 1.34 4.68 1 4 C-0.65 5.32 -2.3 6.64 -4 8 C-3.40072174 4.64404172 -2.15377564 2.62198774 0 0 Z " fill="#C0C2D6" transform="translate(283,227)"/>
<path d="M0 0 C-1.6188996 1.03048037 -3.24532489 2.04914678 -4.875 3.0625 C-5.77992188 3.63097656 -6.68484375 4.19945312 -7.6171875 4.78515625 C-8.40351563 5.18605469 -9.18984375 5.58695312 -10 6 C-10.66 5.67 -11.32 5.34 -12 5 C-8.77464852 1.23708994 -4.90542108 -1.63514036 0 0 Z " fill="#38407E" transform="translate(250,261)"/>
<path d="M0 0 C0.33 0.66 0.66 1.32 1 2 C-0.21484375 4.3828125 -0.21484375 4.3828125 -1.9375 7.125 C-2.50339844 8.03507813 -3.06929688 8.94515625 -3.65234375 9.8828125 C-4.09707031 10.58148438 -4.54179687 11.28015625 -5 12 C-6 9 -6 9 -5.29296875 6.9921875 C-4.92816406 6.29351562 -4.56335938 5.59484375 -4.1875 4.875 C-3.83042969 4.17117187 -3.47335937 3.46734375 -3.10546875 2.7421875 C-2 1 -2 1 0 0 Z " fill="#363E7D" transform="translate(266,238)"/>
<path d="M0 0 C2.86453858 3.41016497 4.34703566 6.90694544 6 11 C5.34 11 4.68 11 4 11 C3.67 11.66 3.34 12.32 3 13 C2.49487756 11.39743892 1.99608373 9.79288208 1.5 8.1875 C1.2215625 7.29417969 0.943125 6.40085937 0.65625 5.48046875 C0 3 0 3 0 0 Z " fill="#D0D2E1" transform="translate(259,263)"/>
<path d="M0 0 C0.99 0 1.98 0 3 0 C3 0.66 3 1.32 3 2 C3.99 2.66 4.98 3.32 6 4 C4.35 4.33 2.7 4.66 1 5 C1 5.66 1 6.32 1 7 C0.01 7 -0.98 7 -2 7 C-1.34 4.69 -0.68 2.38 0 0 Z " fill="#606698" transform="translate(264,255)"/>
<path d="M0 0 C3.21043882 1.38188453 5.04936365 2.92421903 7.25 5.625 C8.03117188 6.57246094 8.03117188 6.57246094 8.828125 7.5390625 C9.40820312 8.26222656 9.40820312 8.26222656 10 9 C7 9 7 9 5.17578125 7.28515625 C4.56089844 6.55167969 3.94601563 5.81820312 3.3125 5.0625 C2.68988281 4.33160156 2.06726563 3.60070312 1.42578125 2.84765625 C0 1 0 1 0 0 Z " fill="#5C6295" transform="translate(231,231)"/>
<path d="M0 0 C0.33 0.99 0.66 1.98 1 3 C-0.8125 6.1875 -0.8125 6.1875 -3 9 C-3.66 9 -4.32 9 -5 9 C-3.7508258 5.54074837 -2.32472205 2.85306797 0 0 Z " fill="#373E7D" transform="translate(250,265)"/>
<path d="M0 0 C6 7.4 6 7.4 6 11 C5.34 11 4.68 11 4 11 C3.32591692 9.73308493 2.66099503 8.46129251 2 7.1875 C1.62875 6.47980469 1.2575 5.77210938 0.875 5.04296875 C0 3 0 3 0 0 Z " fill="#373E7D" transform="translate(260,262)"/>
<path d="M0 0 C-0.33 0.66 -0.66 1.32 -1 2 C-3.06640625 2.4140625 -3.06640625 2.4140625 -5.5625 2.625 C-6.38878906 2.69976562 -7.21507812 2.77453125 -8.06640625 2.8515625 C-9.02353516 2.92503906 -9.02353516 2.92503906 -10 3 C-6.93361469 -0.59474709 -4.63005752 -0.26207873 0 0 Z " fill="#383F7E" transform="translate(244,259)"/>
<path d="M0 0 C0.66 0.33 1.32 0.66 2 1 C1.39301257 5.12751449 -0.03810791 8.3321148 -2 12 C-3.15957207 8.52128379 -2.77456651 7.65780355 -1.5625 4.3125 C-1.13130859 3.10013672 -1.13130859 3.10013672 -0.69140625 1.86328125 C-0.46324219 1.24839844 -0.23507812 0.63351563 0 0 Z " fill="#D3D5E2" transform="translate(262,237)"/>
<path d="M0 0 C2.97 0.33 5.94 0.66 9 1 C9 1.66 9 2.32 9 3 C2.84765625 2.4140625 2.84765625 2.4140625 1 2 C0.67 1.34 0.34 0.68 0 0 Z " fill="#323A7A" transform="translate(268,259)"/>
<path d="M0 0 C0.66 0 1.32 0 2 0 C0.80100302 3.0831351 -0.47700477 6.06279492 -2 9 C-2.6875 6.75 -2.6875 6.75 -3 4 C-1.6875 1.6875 -1.6875 1.6875 0 0 Z " fill="#50568D" transform="translate(265,245)"/>
<path d="M0 0 C0.66 0.99 1.32 1.98 2 3 C0.02 5.31 -1.96 7.62 -4 10 C-4 5.75354935 -2.18249194 3.61475228 0 0 Z " fill="#D3D4E2" transform="translate(266,240)"/>
</svg>
